HIERARCHY
ROOT hip
{
  OFFSET 0 0 0
  CHANNELS 6 Xposition Yposition Zposition Zrotation Yrotation Xrotation
  JOINT abdomen
  {
    OFFSET 0 20.6881 -0.73152
    CHANNELS 3 Zrotation Xrotation Yrotation
    JOINT chest
    {
      OFFSET 0 11.7043 -0.48768
      CHANNELS 3 Zrotation Xrotation Yrotation
      JOINT neck
      {
        OFFSET 0 22.1894 -2.19456
        CHANNELS 3 Zrotation Xrotation Yrotation
        JOINT head
        {
          OFFSET -0.24384 7.07133 1.2192
          CHANNELS 3 Zrotation Xrotation Yrotation
          JOINT leftEye
          {
            OFFSET 4.14528 8.04674 8.04672
            CHANNELS 3 Zrotation Xrotation Yrotation
            End Site
            {
              OFFSET 1 0 0
            }
          }
          JOINT rightEye
          {
            OFFSET -3.6576 8.04674 8.04672
            CHANNELS 3 Zrotation Xrotation Yrotation
            End Site
            {
              OFFSET 1 0 0
            }
          }
        }
      }
      JOINT rCollar
      {
        OFFSET -2.68224 19.2634 -4.8768
        CHANNELS 3 Zrotation Xrotation Yrotation
        JOINT rShldr
        {
          OFFSET -8.77824 -1.95073 1.46304
          CHANNELS 3 Zrotation Xrotation Yrotation
          JOINT rForeArm
          {
            OFFSET -28.1742 -1.7115 0.48768
            CHANNELS 3 Zrotation Xrotation Yrotation
            JOINT rHand
            {
              OFFSET -22.5879 0.773209 7.07136
              CHANNELS 3 Zrotation Xrotation Yrotation
              JOINT rThumb1
              {
                OFFSET -1.2192 -0.487915 3.41376
                CHANNELS 3 Zrotation Xrotation Yrotation
                JOINT rThumb2
                {
                  OFFSET -3.37035 -0.52449 3.41376
                  CHANNELS 3 Zrotation Xrotation Yrotation
                  End Site
                  {
                    OFFSET -1.78271 -1.18214 1.43049
                  }
                }
              }
              JOINT rIndex1
              {
                OFFSET -7.75947 0.938293 5.60832
                CHANNELS 3 Zrotation Xrotation Yrotation
                JOINT rIndex2
                {
                  OFFSET -2.54057 -0.884171 1.56538
                  CHANNELS 3 Zrotation Xrotation Yrotation
                  End Site
                  {
                    OFFSET -1.62519 -0.234802 1.16502
                  }
                }
              }
              JOINT rMid1
              {
                OFFSET -8.24714 1.18213 3.41376
                CHANNELS 3 Zrotation Xrotation Yrotation
                JOINT rMid2
                {
                  OFFSET -3.10165 -0.590103 1.0647
                  CHANNELS 3 Zrotation Xrotation Yrotation
                  End Site
                  {
                    OFFSET -2.48547 -0.328903 0.83742
                  }
                }
              }
              JOINT rRing1
              {
                OFFSET -8.82822 0.546677 1.51678
                CHANNELS 3 Zrotation Xrotation Yrotation
                JOINT rRing2
                {
                  OFFSET -2.60934 -0.819778 -0.0198488
                  CHANNELS 3 Zrotation Xrotation Yrotation
                  End Site
                  {
                    OFFSET -2.33842 -0.294052 0.168128
                  }
                }
              }
              JOINT rPinky1
              {
                OFFSET -8.27202 -0.0477905 -0.4584
                CHANNELS 3 Zrotation Xrotation Yrotation
                JOINT rPinky2
                {
                  OFFSET -1.82734 -0.647385 -0.700984
                  CHANNELS 3 Zrotation Xrotation Yrotation
                  End Site
                  {
                    OFFSET -1.69225 -0.51767 -0.607171
                  }
                }
              }
            }
          }
        }
      }
      JOINT lCollar
      {
        OFFSET 2.68224 19.2634 -4.8768
        CHANNELS 3 Zrotation Xrotation Yrotation
        JOINT lShldr
        {
          OFFSET 8.77824 -1.95073 1.46304
          CHANNELS 3 Zrotation Xrotation Yrotation
          JOINT lForeArm
          {
            OFFSET 28.1742 -1.7115 0.48768
            CHANNELS 3 Zrotation Xrotation Yrotation
            JOINT lHand
            {
              OFFSET 22.5879 0.773209 7.07136
              CHANNELS 3 Zrotation Xrotation Yrotation
              JOINT lThumb1
              {
                OFFSET 1.2192 -0.487915 3.41376
                CHANNELS 3 Zrotation Xrotation Yrotation
                JOINT lThumb2
                {
                  OFFSET 3.37035 -0.52449 3.41376
                  CHANNELS 3 Zrotation Xrotation Yrotation
                  End Site
                  {
                    OFFSET 1.78271 -1.18214 1.43049
                  }
                }
              }
              JOINT lIndex1
              {
                OFFSET 7.75947 0.938293 5.60832
                CHANNELS 3 Zrotation Xrotation Yrotation
                JOINT lIndex2
                {
                  OFFSET 2.54057 -0.884171 1.56538
                  CHANNELS 3 Zrotation Xrotation Yrotation
                  End Site
                  {
                    OFFSET 1.62519 -0.234802 1.16502
                  }
                }
              }
              JOINT lMid1
              {
                OFFSET 8.24714 1.18213 3.41376
                CHANNELS 3 Zrotation Xrotation Yrotation
                JOINT lMid2
                {
                  OFFSET 3.10165 -0.590103 1.0647
                  CHANNELS 3 Zrotation Xrotation Yrotation
                  End Site
                  {
                    OFFSET 2.48547 -0.328903 0.83742
                  }
                }
              }
              JOINT lRing1
              {
                OFFSET 8.82822 0.546677 1.51678
                CHANNELS 3 Zrotation Xrotation Yrotation
                JOINT lRing2
                {
                  OFFSET 2.60934 -0.819778 -0.0198488
                  CHANNELS 3 Zrotation Xrotation Yrotation
                  End Site
                  {
                    OFFSET 2.33842 -0.294052 0.168128
                  }
                }
              }
              JOINT lPinky1
              {
                OFFSET 8.27202 -0.0477905 -0.4584
                CHANNELS 3 Zrotation Xrotation Yrotation
                JOINT lPinky2
                {
                  OFFSET 1.82734 -0.647385 -0.700984
                  CHANNELS 3 Zrotation Xrotation Yrotation
                  End Site
                  {
                    OFFSET 1.69225 -0.51767 -0.607171
                  }
                }
              }
            }
          }
        }
      }
    }
  }
  JOINT rButtock
  {
    OFFSET -8.77824 4.35084 1.2192
    CHANNELS 3 Zrotation Xrotation Yrotation
    JOINT rThigh
    {
      OFFSET 0 -1.70687 -2.19456
      CHANNELS 3 Zrotation Xrotation Yrotation
      JOINT rShin
      {
        OFFSET 0 -36.8199 0.73152
        CHANNELS 3 Zrotation Xrotation Yrotation
        JOINT rFoot
        {
          OFFSET 0.73152 -45.1104 -5.12064
          CHANNELS 3 Zrotation Xrotation Yrotation
          End Site
          {
            OFFSET -1.1221 -3.69964 12.103
          }
        }
      }
    }
  }
  JOINT lButtock
  {
    OFFSET 8.77824 4.35084 1.2192
    CHANNELS 3 Zrotation Xrotation Yrotation
    JOINT lThigh
    {
      OFFSET 0 -1.70687 -2.19456
      CHANNELS 3 Zrotation Xrotation Yrotation
      JOINT lShin
      {
        OFFSET 0 -36.8199 0.73152
        CHANNELS 3 Zrotation Xrotation Yrotation
        JOINT lFoot
        {
          OFFSET -0.73152 -45.1104 -5.12064
          CHANNELS 3 Zrotation Xrotation Yrotation
          End Site
          {
            OFFSET 1.1221 -3.69964 12.103
          }
        }
      }
    }
  }
}
MOTION
Frames:	5
Frame Time:	0.03333
-71.1189 60.0023 37.9619 -83.295152 -81.408707 90.865339 3.728261 12.49121 -0.655605 1.216797 -11.275124 17.284647 -11.211016 21.428432 -59.527015 44.159297 -6.019194 64.696279 -0.00436 -0.0 0.004476 -0.004645 -0.0 0.000817 -0.049173 0.292484 0.06407 81.027944 -11.406231 26.124353 -8.966809 54.343049 115.481424 -9.861841 -33.853548 -8.230832 71.831284 -48.263966 25.791263 -156.562436 -31.055215 129.244483 -152.314837 -18.947708 121.431118 -159.312036 -11.841131 119.566387 7.905478 -24.807394 -3.013016 -171.480672 -29.413143 144.179211 0.004149 1.855558 0.581797 -156.264098 -13.739885 173.481276 -152.696971 39.284954 -147.933071 -79.554818 -52.838415 -78.606288 13.947292 42.75037 -15.784589 102.833874 1.046853 -108.25639 119.765878 7.978782 118.120243 -8.937454 -20.920399 -3.815533 5.762881 5.575487 -1.158771 41.928726 25.299372 -40.00309 162.636374 -37.465324 -122.650233 78.057327 57.193284 -62.363506 36.03575 51.723229 -29.832199 3.086602 17.382279 -3.407032 70.380437 -72.12856 87.28099 150.969552 -0.762556 -176.393318 26.563355 -38.861669 25.604513 152.734938 33.175206 147.473749 0.000454 0.000494 0.000454 -16.623265 -23.76635 -104.020056 -75.464373 5.310505 88.84272 -98.990937 10.813096 26.395198 0.000368 -0.001267 -0.0 54.897919 -55.483503 -120.076662 42.189458 -79.172311 125.547826 91.505229 -34.523308 176.723025
-73.77 60.1982 40.1995 -47.504056 -81.807828 53.932645 1.121853 13.97685 -0.225628 1.020899 -11.456751 16.567784 7.366939 18.835198 62.209246 -37.133974 -14.22003 -68.712214 -0.000126 -0.0 0.002493 -0.00101 0.0 -0.00286 -40.037437 -86.056207 -61.568839 -45.551231 -40.336925 -110.036815 161.692603 -36.487256 -77.320587 -16.810818 0.464037 -1.344333 -173.977761 -11.64286 89.881351 -159.244328 0.57582 84.476303 88.792734 -75.498273 40.050483 129.830547 -66.778129 67.889655 -15.423685 32.961537 11.295899 168.066186 -64.09999 133.147125 0.006165 1.771494 0.555747 -156.581463 -23.129105 174.559202 -23.389951 -36.350103 -22.492258 -146.292789 10.510607 -143.139183 -2.460072 -18.216339 3.669098 63.046889 58.864341 -146.066396 -14.198304 82.200951 116.036497 -167.350008 -23.924896 -142.707215 2.151597 2.110712 -0.369836 136.979395 -39.829882 -117.502804 -10.210351 -18.05107 4.562607 -87.989395 -60.431674 -34.724862 36.036926 51.723021 -29.832063 163.164331 -4.971433 -143.274694 0.061861 -3.510348 1.104104 155.886867 -15.224936 -173.667968 -31.492106 83.083353 -6.669629 148.425324 11.554791 142.657813 179.999402 75.748741 0.000617 160.59105 43.551904 -180.0 112.308211 -75.861925 -171.868876 5.199816 -2.758595 89.167426 179.999402 75.748741 0.000617 -157.861543 11.306604 115.729758 77.065051 -21.995724 -37.632425 -56.634126 8.517362 -11.287307
-76.8998 59.9487 42.8337 -17.911344 -78.907269 23.220439 -1.65625 15.619736 0.379585 0.775463 -11.656208 15.403987 -0.330203 34.920564 -175.938389 1.603622 55.153075 169.44002 -0.004336 0.0 -0.002764 0.001796 -0.0 -0.001859 -41.242608 -86.118476 -62.793988 -75.319989 -15.844452 -144.436797 9.561652 57.598818 -158.536376 -159.697544 20.135998 135.895464 178.619142 -18.760063 89.039307 -117.124835 18.634523 55.293389 37.214098 -57.918382 -0.644993 -4.348406 28.195683 5.437591 -152.82632 14.79306 138.514274 -150.61702 26.617664 136.144041 0.006362 1.769381 0.556724 7.303286 26.539495 4.021282 -14.103392 -26.511114 -13.432463 37.698023 80.857936 -0.673 129.706202 55.102375 -133.553405 66.068114 -6.898991 -31.802204 -73.222587 17.510981 130.397598 168.353631 39.230864 -140.148736 -1.588884 -1.576391 0.22326 140.63646 -46.190111 -120.806307 90.226504 41.073785 -75.79662 170.491326 -20.675735 -114.586534 167.374682 -28.008344 -145.270363 -11.459439 -24.910923 1.155618 72.134469 72.974947 -89.98952 -5.099726 27.974607 0.6988 154.168594 45.106803 148.902938 -1.362801 -0.897413 2.095066 0.0 0.000981 -0.000186 -14.433034 -35.361316 -23.975497 -129.793706 69.682317 19.747421 12.892001 30.614844 86.841413 -0.001532 -0.000759 -0.001532 30.783064 -53.83259 36.424318 -3.183855 82.056058 108.80576 -127.055075 50.238625 34.663933
-80.5794 59.6218 45.6897 -4.52924 -73.720623 8.968585 -2.201905 12.108582 -163.308227 2.322976 7.043122 177.939611 -8.982786 17.444345 -30.086188 28.823209 -26.095741 26.310537 0.000126 0.0 0.001355 0.000126 0.0 0.001355 1.99013 -14.05289 -2.881439 -94.295503 -27.52881 123.851679 -165.296081 -44.387213 -52.810009 -7.429988 -31.013047 -7.145518 -162.892433 -0.575423 89.352987 -156.85234 -2.331201 79.08859 -46.209331 39.652626 36.318136 -174.661851 -26.210392 110.953219 -125.645083 49.840429 115.274464 -163.106164 -4.792364 143.081676 -0.062681 -3.51026 -1.104657 4.593491 41.449369 7.693932 -157.32693 57.246645 -150.512926 44.589144 80.284445 -8.960113 -4.229926 -44.313214 8.560858 85.97868 0.198388 173.54042 109.063438 -41.312441 74.72772 -6.745603 -26.638757 -0.91521 176.600076 -14.212468 -89.69037 108.49338 16.289461 -47.887261 -16.529541 -29.708834 5.859109 10.0835 29.911592 -9.650024 169.092009 -33.247104 -145.374301 85.976873 63.885553 -77.726194 145.120003 0.185492 179.186391 154.15957 -12.623049 177.48794 26.561352 -38.862669 25.603207 -15.558815 41.65031 -8.04481 0.00417 -0.000745 0.002085 -15.32847 -45.244358 -11.230258 130.562121 74.738045 -89.527133 176.423318 -58.325631 69.939353 0.000533 0.000978 -0.000686 23.980225 -54.053938 -151.21357 56.850284 -71.207121 161.032721 129.336807 -52.49773 -147.402631
-84.79090000000001 59.197599999999994 48.674299999999995 0.919205 -66.829276 2.291007 -3.355515 17.760486 0.891343 0.371055 -12.669861 12.390821 9.101664 26.964614 111.601265 -40.72814 24.444479 -117.881844 -0.002371 -0.0 0.001324 0.002866 -0.0 -0.002796 4.239637 -44.742712 -8.647996 -118.8493 -62.78911 125.554626 -166.060493 -6.613691 -62.56887 -6.946679 -32.586091 -7.293075 -78.031031 38.689058 42.412416 -163.584352 -39.594532 81.628603 -90.226313 41.072592 75.796377 -171.820262 -22.831654 114.381419 -0.056878 0.16812 0.030824 -172.073664 -31.344861 144.103465 0.004769 1.771366 0.556616 9.090588 12.714264 1.664116 -150.577678 31.033701 -146.364225 -9.883229 -23.285442 -11.991513 155.537412 -3.733384 -161.884849 -123.789013 -2.590231 143.673003 20.758926 36.563557 -62.102194 1.754816 -2.968574 1.267676 164.492526 -2.167315 -89.561681 177.205914 -14.960042 -89.268216 149.659904 -14.02925 -120.542458 -82.422673 -69.221696 -30.972355 -68.982305 -80.154576 -40.57619 163.680286 -5.36899 -143.220658 145.119102 0.267451 179.213123 154.177823 -12.524588 177.506326 -12.251175 41.42511 -10.280916 -36.580725 80.464295 0.933814 -179.998231 75.748397 -0.001826 168.342838 17.207349 132.919807 116.29139 -54.316906 11.968003 -10.382451 58.666559 -79.832866 -179.990129 75.749944 -0.006754 -168.781235 25.461982 -4.670776 -82.083323 70.31939 -112.117197 -38.306358 4.838475 -145.959478
